<mxfile host="Electron" agent="Mozilla/5.0 (Windows NT 10.0; Win64; x64) AppleWebKit/537.36 (KHTML, like Gecko) draw.io/24.7.8 Chrome/128.0.6613.36 Electron/32.0.1 Safari/537.36" version="24.7.8">
  <diagram name="Pagina-1" id="dlaFQ3_MSa_BSadidM6w">
    <mxGraphModel dx="2336" dy="2049" grid="1" gridSize="10" guides="1" tooltips="1" connect="1" arrows="1" fold="1" page="1" pageScale="1" pageWidth="827" pageHeight="1169" math="0" shadow="0">
      <root>
        <mxCell id="0" />
        <mxCell id="1" parent="0" />
        <mxCell id="kRAPPfYNKx1Qib04YP8S-1" value="" style="strokeWidth=1;shadow=0;dashed=0;align=center;html=1;shape=mxgraph.mockup.containers.browserWindow;rSize=0;strokeColor=#666666;strokeColor2=#008cff;strokeColor3=#c4c4c4;mainText=,;recursiveResize=0;" vertex="1" parent="1">
          <mxGeometry x="45" y="-10" width="1165" height="820" as="geometry" />
        </mxCell>
        <mxCell id="kRAPPfYNKx1Qib04YP8S-2" value="Page 1" style="strokeWidth=1;shadow=0;dashed=0;align=center;html=1;shape=mxgraph.mockup.containers.anchor;fontSize=17;fontColor=#666666;align=left;whiteSpace=wrap;" vertex="1" parent="kRAPPfYNKx1Qib04YP8S-1">
          <mxGeometry x="60" y="12" width="110" height="26" as="geometry" />
        </mxCell>
        <mxCell id="kRAPPfYNKx1Qib04YP8S-3" value="https://www.mypersonaldriver/documents" style="strokeWidth=1;shadow=0;dashed=0;align=center;html=1;shape=mxgraph.mockup.containers.anchor;rSize=0;fontSize=17;fontColor=#666666;align=left;" vertex="1" parent="kRAPPfYNKx1Qib04YP8S-1">
          <mxGeometry x="130" y="60" width="250" height="26" as="geometry" />
        </mxCell>
        <mxCell id="kRAPPfYNKx1Qib04YP8S-6" value="" style="line;strokeWidth=4;html=1;perimeter=backbonePerimeter;points=[];outlineConnect=0;" vertex="1" parent="kRAPPfYNKx1Qib04YP8S-1">
          <mxGeometry y="190" width="1160" height="10" as="geometry" />
        </mxCell>
        <mxCell id="kRAPPfYNKx1Qib04YP8S-7" value="" style="shape=mxgraph.signs.transportation.car_4;html=1;pointerEvents=1;fillColor=#000000;strokeColor=none;verticalLabelPosition=bottom;verticalAlign=top;align=center;" vertex="1" parent="kRAPPfYNKx1Qib04YP8S-1">
          <mxGeometry x="10" y="120" width="70" height="60" as="geometry" />
        </mxCell>
        <mxCell id="kRAPPfYNKx1Qib04YP8S-8" value="Home" style="strokeWidth=1;shadow=0;dashed=0;align=center;html=1;shape=mxgraph.mockup.buttons.button;strokeColor=#666666;fontColor=#ffffff;mainText=;buttonStyle=round;fontSize=17;fontStyle=1;fillColor=#000000;whiteSpace=wrap;" vertex="1" parent="kRAPPfYNKx1Qib04YP8S-1">
          <mxGeometry x="150" y="127.5" width="120" height="45" as="geometry" />
        </mxCell>
        <mxCell id="kRAPPfYNKx1Qib04YP8S-9" value="" style="line;strokeWidth=4;html=1;perimeter=backbonePerimeter;points=[];outlineConnect=0;" vertex="1" parent="kRAPPfYNKx1Qib04YP8S-1">
          <mxGeometry y="660" width="1160" height="10" as="geometry" />
        </mxCell>
        <mxCell id="kRAPPfYNKx1Qib04YP8S-10" value="About us" style="strokeWidth=1;shadow=0;dashed=0;align=center;html=1;shape=mxgraph.mockup.buttons.button;strokeColor=#666666;fontColor=#ffffff;mainText=;buttonStyle=round;fontSize=17;fontStyle=1;fillColor=#000000;whiteSpace=wrap;" vertex="1" parent="kRAPPfYNKx1Qib04YP8S-1">
          <mxGeometry x="480" y="680" width="150" height="50" as="geometry" />
        </mxCell>
        <mxCell id="kRAPPfYNKx1Qib04YP8S-17" value="" style="verticalLabelPosition=bottom;shadow=0;dashed=0;align=center;html=1;verticalAlign=top;strokeWidth=1;shape=mxgraph.mockup.containers.userMale;strokeColor=#666666;strokeColor2=#008cff;" vertex="1" parent="kRAPPfYNKx1Qib04YP8S-1">
          <mxGeometry x="1076" y="120" width="70" height="65" as="geometry" />
        </mxCell>
        <mxCell id="kRAPPfYNKx1Qib04YP8S-42" value="Assets" style="childLayout=tableLayout;recursiveResize=0;strokeColor=#98bf21;fillColor=#A7C942;shadow=1;" vertex="1" parent="kRAPPfYNKx1Qib04YP8S-1">
          <mxGeometry x="28" y="360" width="1104" height="228" as="geometry" />
        </mxCell>
        <mxCell id="kRAPPfYNKx1Qib04YP8S-43" style="shape=tableRow;horizontal=0;startSize=0;swimlaneHead=0;swimlaneBody=0;top=0;left=0;bottom=0;right=0;dropTarget=0;collapsible=0;recursiveResize=0;expand=0;fontStyle=0;strokeColor=inherit;fillColor=#ffffff;" vertex="1" parent="kRAPPfYNKx1Qib04YP8S-42">
          <mxGeometry width="1104" height="30" as="geometry" />
        </mxCell>
        <mxCell id="kRAPPfYNKx1Qib04YP8S-44" value="UTENTE" style="connectable=0;recursiveResize=0;strokeColor=inherit;fillColor=#A7C942;align=center;fontStyle=1;fontColor=#FFFFFF;html=1;" vertex="1" parent="kRAPPfYNKx1Qib04YP8S-43">
          <mxGeometry width="367" height="30" as="geometry">
            <mxRectangle width="367" height="30" as="alternateBounds" />
          </mxGeometry>
        </mxCell>
        <mxCell id="kRAPPfYNKx1Qib04YP8S-45" value="TIPO DI DOCUMENTO" style="connectable=0;recursiveResize=0;strokeColor=inherit;fillColor=#A7C942;align=center;fontStyle=1;fontColor=#FFFFFF;html=1;" vertex="1" parent="kRAPPfYNKx1Qib04YP8S-43">
          <mxGeometry x="367" width="370" height="30" as="geometry">
            <mxRectangle width="370" height="30" as="alternateBounds" />
          </mxGeometry>
        </mxCell>
        <mxCell id="kRAPPfYNKx1Qib04YP8S-46" value="" style="connectable=0;recursiveResize=0;strokeColor=inherit;fillColor=#A7C942;align=center;fontStyle=1;fontColor=#FFFFFF;html=1;" vertex="1" parent="kRAPPfYNKx1Qib04YP8S-43">
          <mxGeometry x="737" width="367" height="30" as="geometry">
            <mxRectangle width="367" height="30" as="alternateBounds" />
          </mxGeometry>
        </mxCell>
        <mxCell id="kRAPPfYNKx1Qib04YP8S-47" value="" style="shape=tableRow;horizontal=0;startSize=0;swimlaneHead=0;swimlaneBody=0;top=0;left=0;bottom=0;right=0;dropTarget=0;collapsible=0;recursiveResize=0;expand=0;fontStyle=0;strokeColor=inherit;fillColor=#ffffff;" vertex="1" parent="kRAPPfYNKx1Qib04YP8S-42">
          <mxGeometry y="30" width="1104" height="50" as="geometry" />
        </mxCell>
        <mxCell id="kRAPPfYNKx1Qib04YP8S-48" value="Nome Cognome" style="connectable=0;recursiveResize=0;strokeColor=inherit;fillColor=inherit;align=center;whiteSpace=wrap;html=1;" vertex="1" parent="kRAPPfYNKx1Qib04YP8S-47">
          <mxGeometry width="367" height="50" as="geometry">
            <mxRectangle width="367" height="50" as="alternateBounds" />
          </mxGeometry>
        </mxCell>
        <mxCell id="kRAPPfYNKx1Qib04YP8S-49" value="Patente" style="connectable=0;recursiveResize=0;strokeColor=inherit;fillColor=inherit;align=center;whiteSpace=wrap;html=1;" vertex="1" parent="kRAPPfYNKx1Qib04YP8S-47">
          <mxGeometry x="367" width="370" height="50" as="geometry">
            <mxRectangle width="370" height="50" as="alternateBounds" />
          </mxGeometry>
        </mxCell>
        <mxCell id="kRAPPfYNKx1Qib04YP8S-50" value="" style="connectable=0;recursiveResize=0;strokeColor=inherit;fillColor=inherit;align=center;whiteSpace=wrap;html=1;" vertex="1" parent="kRAPPfYNKx1Qib04YP8S-47">
          <mxGeometry x="737" width="367" height="50" as="geometry">
            <mxRectangle width="367" height="50" as="alternateBounds" />
          </mxGeometry>
        </mxCell>
        <mxCell id="kRAPPfYNKx1Qib04YP8S-51" value="" style="shape=tableRow;horizontal=0;startSize=0;swimlaneHead=0;swimlaneBody=0;top=0;left=0;bottom=0;right=0;dropTarget=0;collapsible=0;recursiveResize=0;expand=0;fontStyle=1;strokeColor=inherit;fillColor=#EAF2D3;" vertex="1" parent="kRAPPfYNKx1Qib04YP8S-42">
          <mxGeometry y="80" width="1104" height="48" as="geometry" />
        </mxCell>
        <mxCell id="kRAPPfYNKx1Qib04YP8S-52" value="Nome Cognome" style="connectable=0;recursiveResize=0;strokeColor=inherit;fillColor=inherit;whiteSpace=wrap;html=1;" vertex="1" parent="kRAPPfYNKx1Qib04YP8S-51">
          <mxGeometry width="367" height="48" as="geometry">
            <mxRectangle width="367" height="48" as="alternateBounds" />
          </mxGeometry>
        </mxCell>
        <mxCell id="kRAPPfYNKx1Qib04YP8S-53" value="Assicurazione" style="connectable=0;recursiveResize=0;strokeColor=inherit;fillColor=inherit;whiteSpace=wrap;html=1;" vertex="1" parent="kRAPPfYNKx1Qib04YP8S-51">
          <mxGeometry x="367" width="370" height="48" as="geometry">
            <mxRectangle width="370" height="48" as="alternateBounds" />
          </mxGeometry>
        </mxCell>
        <mxCell id="kRAPPfYNKx1Qib04YP8S-54" value="" style="connectable=0;recursiveResize=0;strokeColor=inherit;fillColor=inherit;whiteSpace=wrap;html=1;" vertex="1" parent="kRAPPfYNKx1Qib04YP8S-51">
          <mxGeometry x="737" width="367" height="48" as="geometry">
            <mxRectangle width="367" height="48" as="alternateBounds" />
          </mxGeometry>
        </mxCell>
        <mxCell id="kRAPPfYNKx1Qib04YP8S-55" value="" style="shape=tableRow;horizontal=0;startSize=0;swimlaneHead=0;swimlaneBody=0;top=0;left=0;bottom=0;right=0;dropTarget=0;collapsible=0;recursiveResize=0;expand=0;fontStyle=0;strokeColor=inherit;fillColor=#ffffff;" vertex="1" parent="kRAPPfYNKx1Qib04YP8S-42">
          <mxGeometry y="128" width="1104" height="52" as="geometry" />
        </mxCell>
        <mxCell id="kRAPPfYNKx1Qib04YP8S-56" value="Nome Cognome" style="connectable=0;recursiveResize=0;strokeColor=inherit;fillColor=inherit;fontStyle=0;align=center;whiteSpace=wrap;html=1;" vertex="1" parent="kRAPPfYNKx1Qib04YP8S-55">
          <mxGeometry width="367" height="52" as="geometry">
            <mxRectangle width="367" height="52" as="alternateBounds" />
          </mxGeometry>
        </mxCell>
        <mxCell id="kRAPPfYNKx1Qib04YP8S-57" value="Patente" style="connectable=0;recursiveResize=0;strokeColor=inherit;fillColor=inherit;fontStyle=0;align=center;whiteSpace=wrap;html=1;" vertex="1" parent="kRAPPfYNKx1Qib04YP8S-55">
          <mxGeometry x="367" width="370" height="52" as="geometry">
            <mxRectangle width="370" height="52" as="alternateBounds" />
          </mxGeometry>
        </mxCell>
        <mxCell id="kRAPPfYNKx1Qib04YP8S-58" value="" style="connectable=0;recursiveResize=0;strokeColor=inherit;fillColor=inherit;fontStyle=0;align=center;whiteSpace=wrap;html=1;" vertex="1" parent="kRAPPfYNKx1Qib04YP8S-55">
          <mxGeometry x="737" width="367" height="52" as="geometry">
            <mxRectangle width="367" height="52" as="alternateBounds" />
          </mxGeometry>
        </mxCell>
        <mxCell id="kRAPPfYNKx1Qib04YP8S-59" value="" style="shape=tableRow;horizontal=0;startSize=0;swimlaneHead=0;swimlaneBody=0;top=0;left=0;bottom=0;right=0;dropTarget=0;collapsible=0;recursiveResize=0;expand=0;fontStyle=1;strokeColor=inherit;fillColor=#EAF2D3;" vertex="1" parent="kRAPPfYNKx1Qib04YP8S-42">
          <mxGeometry y="180" width="1104" height="48" as="geometry" />
        </mxCell>
        <mxCell id="kRAPPfYNKx1Qib04YP8S-60" value="Nome Cognome" style="connectable=0;recursiveResize=0;strokeColor=inherit;fillColor=inherit;whiteSpace=wrap;html=1;" vertex="1" parent="kRAPPfYNKx1Qib04YP8S-59">
          <mxGeometry width="367" height="48" as="geometry">
            <mxRectangle width="367" height="48" as="alternateBounds" />
          </mxGeometry>
        </mxCell>
        <mxCell id="kRAPPfYNKx1Qib04YP8S-61" value="Carta d&#39;identità" style="connectable=0;recursiveResize=0;strokeColor=inherit;fillColor=inherit;whiteSpace=wrap;html=1;" vertex="1" parent="kRAPPfYNKx1Qib04YP8S-59">
          <mxGeometry x="367" width="370" height="48" as="geometry">
            <mxRectangle width="370" height="48" as="alternateBounds" />
          </mxGeometry>
        </mxCell>
        <mxCell id="kRAPPfYNKx1Qib04YP8S-62" value="" style="connectable=0;recursiveResize=0;strokeColor=inherit;fillColor=inherit;whiteSpace=wrap;html=1;" vertex="1" parent="kRAPPfYNKx1Qib04YP8S-59">
          <mxGeometry x="737" width="367" height="48" as="geometry">
            <mxRectangle width="367" height="48" as="alternateBounds" />
          </mxGeometry>
        </mxCell>
        <mxCell id="kRAPPfYNKx1Qib04YP8S-63" value="&lt;b&gt;&lt;font style=&quot;font-size: 24px;&quot;&gt;DOCUMENTI DA ACCETTARE&lt;/font&gt;&lt;/b&gt;" style="text;html=1;align=center;verticalAlign=middle;whiteSpace=wrap;rounded=0;" vertex="1" parent="kRAPPfYNKx1Qib04YP8S-1">
          <mxGeometry x="378" y="240" width="354" height="30" as="geometry" />
        </mxCell>
        <mxCell id="kRAPPfYNKx1Qib04YP8S-64" value="Visualizza" style="strokeWidth=1;shadow=0;dashed=0;align=center;html=1;shape=mxgraph.mockup.buttons.button;strokeColor=#82b366;mainText=;buttonStyle=round;fontSize=17;fontStyle=1;fillColor=#d5e8d4;whiteSpace=wrap;" vertex="1" parent="kRAPPfYNKx1Qib04YP8S-1">
          <mxGeometry x="896" y="400" width="124" height="30" as="geometry" />
        </mxCell>
        <mxCell id="kRAPPfYNKx1Qib04YP8S-65" value="Visualizza" style="strokeWidth=1;shadow=0;dashed=0;align=center;html=1;shape=mxgraph.mockup.buttons.button;strokeColor=#82b366;mainText=;buttonStyle=round;fontSize=17;fontStyle=1;fillColor=#d5e8d4;whiteSpace=wrap;" vertex="1" parent="kRAPPfYNKx1Qib04YP8S-1">
          <mxGeometry x="896" y="450" width="124" height="30" as="geometry" />
        </mxCell>
        <mxCell id="kRAPPfYNKx1Qib04YP8S-66" value="Visualizza" style="strokeWidth=1;shadow=0;dashed=0;align=center;html=1;shape=mxgraph.mockup.buttons.button;strokeColor=#82b366;mainText=;buttonStyle=round;fontSize=17;fontStyle=1;fillColor=#d5e8d4;whiteSpace=wrap;" vertex="1" parent="kRAPPfYNKx1Qib04YP8S-1">
          <mxGeometry x="896" y="500" width="124" height="30" as="geometry" />
        </mxCell>
        <mxCell id="kRAPPfYNKx1Qib04YP8S-67" value="Visualizza" style="strokeWidth=1;shadow=0;dashed=0;align=center;html=1;shape=mxgraph.mockup.buttons.button;strokeColor=#82b366;mainText=;buttonStyle=round;fontSize=17;fontStyle=1;fillColor=#d5e8d4;whiteSpace=wrap;" vertex="1" parent="kRAPPfYNKx1Qib04YP8S-1">
          <mxGeometry x="896" y="550" width="124" height="30" as="geometry" />
        </mxCell>
        <mxCell id="kRAPPfYNKx1Qib04YP8S-106" value="&lt;font style=&quot;font-size: 13px;&quot;&gt;Tramite metodo GET /documents/{idDocument}&amp;nbsp;&lt;/font&gt;&lt;div style=&quot;font-size: 13px;&quot;&gt;&lt;font style=&quot;font-size: 13px;&quot;&gt;viene aperta la pagina con le&amp;nbsp;&lt;/font&gt;&lt;/div&gt;&lt;div style=&quot;font-size: 13px;&quot;&gt;&lt;font style=&quot;font-size: 13px;&quot;&gt;info del documento selezionato&lt;/font&gt;&lt;/div&gt;" style="shape=note;whiteSpace=wrap;html=1;backgroundOutline=1;darkOpacity=0.05;fillColor=#f8cecc;strokeColor=#b85450;" vertex="1" parent="kRAPPfYNKx1Qib04YP8S-1">
          <mxGeometry x="972" y="680" width="224" height="140" as="geometry" />
        </mxCell>
        <mxCell id="kRAPPfYNKx1Qib04YP8S-68" value="" style="strokeWidth=1;shadow=0;dashed=0;align=center;html=1;shape=mxgraph.mockup.containers.browserWindow;rSize=0;strokeColor=#666666;strokeColor2=#008cff;strokeColor3=#c4c4c4;mainText=,;recursiveResize=0;" vertex="1" parent="1">
          <mxGeometry x="54" y="840" width="1166" height="750" as="geometry" />
        </mxCell>
        <mxCell id="kRAPPfYNKx1Qib04YP8S-69" value="Page 1" style="strokeWidth=1;shadow=0;dashed=0;align=center;html=1;shape=mxgraph.mockup.containers.anchor;fontSize=17;fontColor=#666666;align=left;whiteSpace=wrap;" vertex="1" parent="kRAPPfYNKx1Qib04YP8S-68">
          <mxGeometry x="60" y="12" width="110" height="26" as="geometry" />
        </mxCell>
        <mxCell id="kRAPPfYNKx1Qib04YP8S-70" value="https://www.mypersonaldriver/documents/{idDocument}" style="strokeWidth=1;shadow=0;dashed=0;align=center;html=1;shape=mxgraph.mockup.containers.anchor;rSize=0;fontSize=17;fontColor=#666666;align=left;" vertex="1" parent="kRAPPfYNKx1Qib04YP8S-68">
          <mxGeometry x="130" y="60" width="250" height="26" as="geometry" />
        </mxCell>
        <mxCell id="kRAPPfYNKx1Qib04YP8S-71" value="" style="line;strokeWidth=4;html=1;perimeter=backbonePerimeter;points=[];outlineConnect=0;" vertex="1" parent="kRAPPfYNKx1Qib04YP8S-68">
          <mxGeometry y="190" width="1160" height="10" as="geometry" />
        </mxCell>
        <mxCell id="kRAPPfYNKx1Qib04YP8S-72" value="" style="shape=mxgraph.signs.transportation.car_4;html=1;pointerEvents=1;fillColor=#000000;strokeColor=none;verticalLabelPosition=bottom;verticalAlign=top;align=center;" vertex="1" parent="kRAPPfYNKx1Qib04YP8S-68">
          <mxGeometry x="10" y="120" width="70" height="60" as="geometry" />
        </mxCell>
        <mxCell id="kRAPPfYNKx1Qib04YP8S-73" value="Home" style="strokeWidth=1;shadow=0;dashed=0;align=center;html=1;shape=mxgraph.mockup.buttons.button;strokeColor=#666666;fontColor=#ffffff;mainText=;buttonStyle=round;fontSize=17;fontStyle=1;fillColor=#000000;whiteSpace=wrap;" vertex="1" parent="kRAPPfYNKx1Qib04YP8S-68">
          <mxGeometry x="150" y="127.5" width="120" height="45" as="geometry" />
        </mxCell>
        <mxCell id="kRAPPfYNKx1Qib04YP8S-74" value="" style="line;strokeWidth=4;html=1;perimeter=backbonePerimeter;points=[];outlineConnect=0;" vertex="1" parent="kRAPPfYNKx1Qib04YP8S-68">
          <mxGeometry y="660" width="1160" height="10" as="geometry" />
        </mxCell>
        <mxCell id="kRAPPfYNKx1Qib04YP8S-75" value="About us" style="strokeWidth=1;shadow=0;dashed=0;align=center;html=1;shape=mxgraph.mockup.buttons.button;strokeColor=#666666;fontColor=#ffffff;mainText=;buttonStyle=round;fontSize=17;fontStyle=1;fillColor=#000000;whiteSpace=wrap;" vertex="1" parent="kRAPPfYNKx1Qib04YP8S-68">
          <mxGeometry x="480" y="680" width="150" height="50" as="geometry" />
        </mxCell>
        <mxCell id="kRAPPfYNKx1Qib04YP8S-76" value="" style="verticalLabelPosition=bottom;shadow=0;dashed=0;align=center;html=1;verticalAlign=top;strokeWidth=1;shape=mxgraph.mockup.containers.userMale;strokeColor=#666666;strokeColor2=#008cff;" vertex="1" parent="kRAPPfYNKx1Qib04YP8S-68">
          <mxGeometry x="1076" y="120" width="70" height="65" as="geometry" />
        </mxCell>
        <mxCell id="kRAPPfYNKx1Qib04YP8S-98" value="&lt;b&gt;&lt;font style=&quot;font-size: 24px;&quot;&gt;DOCUMENTO&lt;/font&gt;&lt;/b&gt;" style="text;html=1;align=center;verticalAlign=middle;whiteSpace=wrap;rounded=0;" vertex="1" parent="kRAPPfYNKx1Qib04YP8S-68">
          <mxGeometry x="378" y="240" width="354" height="30" as="geometry" />
        </mxCell>
        <mxCell id="kRAPPfYNKx1Qib04YP8S-109" value="" style="sketch=0;outlineConnect=0;fontColor=#232F3E;gradientColor=none;fillColor=#ED7100;strokeColor=none;dashed=0;verticalLabelPosition=bottom;verticalAlign=top;align=center;html=1;fontSize=12;fontStyle=0;aspect=fixed;pointerEvents=1;shape=mxgraph.aws4.container_registry_image;" vertex="1" parent="kRAPPfYNKx1Qib04YP8S-68">
          <mxGeometry x="70" y="320" width="240" height="240" as="geometry" />
        </mxCell>
        <mxCell id="kRAPPfYNKx1Qib04YP8S-110" value="&lt;font style=&quot;font-size: 20px;&quot;&gt;Nome Cognome&amp;nbsp;&lt;/font&gt;&lt;div style=&quot;font-size: 20px;&quot;&gt;&lt;font style=&quot;font-size: 20px;&quot;&gt;Tipo documento&lt;/font&gt;&lt;/div&gt;&lt;div style=&quot;font-size: 20px;&quot;&gt;&lt;font style=&quot;font-size: 20px;&quot;&gt;Numero documento&lt;/font&gt;&lt;/div&gt;&lt;div style=&quot;font-size: 20px;&quot;&gt;&lt;font style=&quot;font-size: 20px;&quot;&gt;Data di scadenza&lt;/font&gt;&lt;/div&gt;" style="text;html=1;align=left;verticalAlign=middle;whiteSpace=wrap;rounded=0;" vertex="1" parent="kRAPPfYNKx1Qib04YP8S-68">
          <mxGeometry x="380" y="335" width="450" height="140" as="geometry" />
        </mxCell>
        <mxCell id="kRAPPfYNKx1Qib04YP8S-111" value="Accetta documento" style="strokeWidth=1;shadow=0;dashed=0;align=center;html=1;shape=mxgraph.mockup.buttons.button;strokeColor=#666666;fontColor=#ffffff;mainText=;buttonStyle=round;fontSize=17;fontStyle=1;fillColor=#000000;whiteSpace=wrap;" vertex="1" parent="kRAPPfYNKx1Qib04YP8S-68">
          <mxGeometry x="388" y="490" width="150" height="50" as="geometry" />
        </mxCell>
        <mxCell id="kRAPPfYNKx1Qib04YP8S-112" value="Rifiuta documento" style="strokeWidth=1;shadow=0;dashed=0;align=center;html=1;shape=mxgraph.mockup.buttons.button;strokeColor=#666666;fontColor=#ffffff;mainText=;buttonStyle=round;fontSize=17;fontStyle=1;fillColor=#000000;whiteSpace=wrap;" vertex="1" parent="kRAPPfYNKx1Qib04YP8S-68">
          <mxGeometry x="582" y="490" width="150" height="50" as="geometry" />
        </mxCell>
        <mxCell id="kRAPPfYNKx1Qib04YP8S-163" value="" style="endArrow=classic;html=1;rounded=0;exitX=0.583;exitY=0.944;exitDx=0;exitDy=0;exitPerimeter=0;entryX=0.588;entryY=-0.001;entryDx=0;entryDy=0;entryPerimeter=0;" edge="1" parent="kRAPPfYNKx1Qib04YP8S-68" target="kRAPPfYNKx1Qib04YP8S-116">
          <mxGeometry width="50" height="50" relative="1" as="geometry">
            <mxPoint x="686" y="540" as="sourcePoint" />
            <mxPoint x="688" y="813" as="targetPoint" />
          </mxGeometry>
        </mxCell>
        <mxCell id="kRAPPfYNKx1Qib04YP8S-103" value="Pagina ottenuta dalla chiamata del metodo&amp;nbsp;&lt;div&gt;GET&amp;nbsp;&lt;span style=&quot;background-color: initial;&quot;&gt;della risorsa documents&lt;/span&gt;&lt;/div&gt;" style="html=1;shadow=0;dashed=0;align=center;verticalAlign=middle;shape=mxgraph.arrows2.arrow;dy=0;dx=30;notch=30;" vertex="1" parent="1">
          <mxGeometry x="-220" y="420" width="300" height="70" as="geometry" />
        </mxCell>
        <mxCell id="kRAPPfYNKx1Qib04YP8S-114" value="" style="endArrow=classic;html=1;rounded=0;exitX=0.583;exitY=0.944;exitDx=0;exitDy=0;exitPerimeter=0;entryX=0.824;entryY=0.002;entryDx=0;entryDy=0;entryPerimeter=0;" edge="1" parent="1" source="kRAPPfYNKx1Qib04YP8S-67" target="kRAPPfYNKx1Qib04YP8S-68">
          <mxGeometry width="50" height="50" relative="1" as="geometry">
            <mxPoint x="1020" y="560" as="sourcePoint" />
            <mxPoint x="1013" y="850" as="targetPoint" />
          </mxGeometry>
        </mxCell>
        <mxCell id="kRAPPfYNKx1Qib04YP8S-116" value="" style="strokeWidth=1;shadow=0;dashed=0;align=center;html=1;shape=mxgraph.mockup.containers.browserWindow;rSize=0;strokeColor=#666666;strokeColor2=#008cff;strokeColor3=#c4c4c4;mainText=,;recursiveResize=0;" vertex="1" parent="1">
          <mxGeometry x="54" y="1710" width="1166" height="750" as="geometry" />
        </mxCell>
        <mxCell id="kRAPPfYNKx1Qib04YP8S-117" value="Page 1" style="strokeWidth=1;shadow=0;dashed=0;align=center;html=1;shape=mxgraph.mockup.containers.anchor;fontSize=17;fontColor=#666666;align=left;whiteSpace=wrap;" vertex="1" parent="kRAPPfYNKx1Qib04YP8S-116">
          <mxGeometry x="60" y="12" width="110" height="26" as="geometry" />
        </mxCell>
        <mxCell id="kRAPPfYNKx1Qib04YP8S-118" value="https://www.mypersonaldriver/??" style="strokeWidth=1;shadow=0;dashed=0;align=center;html=1;shape=mxgraph.mockup.containers.anchor;rSize=0;fontSize=17;fontColor=#666666;align=left;" vertex="1" parent="kRAPPfYNKx1Qib04YP8S-116">
          <mxGeometry x="130" y="60" width="250" height="26" as="geometry" />
        </mxCell>
        <mxCell id="kRAPPfYNKx1Qib04YP8S-119" value="" style="line;strokeWidth=4;html=1;perimeter=backbonePerimeter;points=[];outlineConnect=0;" vertex="1" parent="kRAPPfYNKx1Qib04YP8S-116">
          <mxGeometry y="190" width="1160" height="10" as="geometry" />
        </mxCell>
        <mxCell id="kRAPPfYNKx1Qib04YP8S-120" value="" style="shape=mxgraph.signs.transportation.car_4;html=1;pointerEvents=1;fillColor=#000000;strokeColor=none;verticalLabelPosition=bottom;verticalAlign=top;align=center;" vertex="1" parent="kRAPPfYNKx1Qib04YP8S-116">
          <mxGeometry x="10" y="120" width="70" height="60" as="geometry" />
        </mxCell>
        <mxCell id="kRAPPfYNKx1Qib04YP8S-121" value="Home" style="strokeWidth=1;shadow=0;dashed=0;align=center;html=1;shape=mxgraph.mockup.buttons.button;strokeColor=#666666;fontColor=#ffffff;mainText=;buttonStyle=round;fontSize=17;fontStyle=1;fillColor=#000000;whiteSpace=wrap;" vertex="1" parent="kRAPPfYNKx1Qib04YP8S-116">
          <mxGeometry x="150" y="127.5" width="120" height="45" as="geometry" />
        </mxCell>
        <mxCell id="kRAPPfYNKx1Qib04YP8S-122" value="" style="line;strokeWidth=4;html=1;perimeter=backbonePerimeter;points=[];outlineConnect=0;" vertex="1" parent="kRAPPfYNKx1Qib04YP8S-116">
          <mxGeometry y="660" width="1160" height="10" as="geometry" />
        </mxCell>
        <mxCell id="kRAPPfYNKx1Qib04YP8S-123" value="About us" style="strokeWidth=1;shadow=0;dashed=0;align=center;html=1;shape=mxgraph.mockup.buttons.button;strokeColor=#666666;fontColor=#ffffff;mainText=;buttonStyle=round;fontSize=17;fontStyle=1;fillColor=#000000;whiteSpace=wrap;" vertex="1" parent="kRAPPfYNKx1Qib04YP8S-116">
          <mxGeometry x="480" y="680" width="150" height="50" as="geometry" />
        </mxCell>
        <mxCell id="kRAPPfYNKx1Qib04YP8S-124" value="" style="verticalLabelPosition=bottom;shadow=0;dashed=0;align=center;html=1;verticalAlign=top;strokeWidth=1;shape=mxgraph.mockup.containers.userMale;strokeColor=#666666;strokeColor2=#008cff;" vertex="1" parent="kRAPPfYNKx1Qib04YP8S-116">
          <mxGeometry x="1076" y="120" width="70" height="65" as="geometry" />
        </mxCell>
        <mxCell id="kRAPPfYNKx1Qib04YP8S-125" value="&lt;span style=&quot;font-size: 24px;&quot;&gt;&lt;b&gt;Rifiuta documento&lt;/b&gt;&lt;/span&gt;" style="text;html=1;align=center;verticalAlign=middle;whiteSpace=wrap;rounded=0;" vertex="1" parent="kRAPPfYNKx1Qib04YP8S-116">
          <mxGeometry x="378" y="240" width="354" height="30" as="geometry" />
        </mxCell>
        <mxCell id="kRAPPfYNKx1Qib04YP8S-131" value="From" style="strokeWidth=1;shadow=0;dashed=0;align=center;html=1;shape=mxgraph.mockup.forms.anchor;align=right;spacingRight=2;fontColor=#666666;" vertex="1" parent="kRAPPfYNKx1Qib04YP8S-116">
          <mxGeometry x="346" y="280" width="50" height="18" as="geometry" />
        </mxCell>
        <mxCell id="kRAPPfYNKx1Qib04YP8S-132" value="user@admin.it" style="strokeWidth=1;shadow=0;dashed=0;align=center;html=1;shape=mxgraph.mockup.forms.rrect;fillColor=#ffffff;rSize=0;fontColor=#666666;align=left;spacingLeft=3;strokeColor=#999999;" vertex="1" parent="kRAPPfYNKx1Qib04YP8S-116">
          <mxGeometry x="396" y="280" width="350" height="18" as="geometry" />
        </mxCell>
        <mxCell id="kRAPPfYNKx1Qib04YP8S-133" value="Subject" style="strokeWidth=1;shadow=0;dashed=0;align=center;html=1;shape=mxgraph.mockup.forms.anchor;align=right;spacingRight=2;fontColor=#666666;" vertex="1" parent="kRAPPfYNKx1Qib04YP8S-116">
          <mxGeometry x="346" y="315" width="50" height="18" as="geometry" />
        </mxCell>
        <mxCell id="kRAPPfYNKx1Qib04YP8S-134" value="Documento rifiutato&amp;nbsp;" style="strokeWidth=1;shadow=0;dashed=0;align=center;html=1;shape=mxgraph.mockup.forms.rrect;fillColor=#ffffff;rSize=0;fontColor=#666666;align=left;spacingLeft=3;strokeColor=#999999;" vertex="1" parent="kRAPPfYNKx1Qib04YP8S-116">
          <mxGeometry x="396" y="315" width="350" height="18" as="geometry" />
        </mxCell>
        <mxCell id="kRAPPfYNKx1Qib04YP8S-135" value="To" style="strokeWidth=1;shadow=0;dashed=0;align=center;html=1;shape=mxgraph.mockup.forms.anchor;align=right;spacingRight=2;fontColor=#666666;" vertex="1" parent="kRAPPfYNKx1Qib04YP8S-116">
          <mxGeometry x="346" y="350" width="50" height="18" as="geometry" />
        </mxCell>
        <mxCell id="kRAPPfYNKx1Qib04YP8S-136" value="user@client.it" style="strokeWidth=1;shadow=0;dashed=0;align=center;html=1;shape=mxgraph.mockup.forms.rrect;fillColor=#ffffff;rSize=0;fontColor=#666666;align=left;spacingLeft=3;strokeColor=#999999;" vertex="1" parent="kRAPPfYNKx1Qib04YP8S-116">
          <mxGeometry x="396" y="350" width="350" height="18" as="geometry" />
        </mxCell>
        <mxCell id="kRAPPfYNKx1Qib04YP8S-138" value="" style="strokeWidth=1;shadow=0;dashed=0;align=center;html=1;shape=mxgraph.mockup.forms.rrect;fillColor=#ffffff;rSize=0;fontColor=#666666;align=left;spacingLeft=3;strokeColor=#999999;" vertex="1" parent="kRAPPfYNKx1Qib04YP8S-116">
          <mxGeometry x="396" y="385" width="350" height="18" as="geometry" />
        </mxCell>
        <mxCell id="kRAPPfYNKx1Qib04YP8S-141" value="&lt;div style=&quot;text-align: justify; line-height: 310%;&quot;&gt;&lt;i style=&quot;background-color: initial;&quot;&gt;se &quot;altro&quot; specficare il motivo&lt;/i&gt;&lt;/div&gt;" style="strokeWidth=1;shadow=0;dashed=0;align=center;html=1;shape=mxgraph.mockup.forms.rrect;fillColor=#ffffff;rSize=0;fontColor=#666666;align=left;spacingLeft=3;strokeColor=#999999;verticalAlign=top;whiteSpace=wrap;" vertex="1" parent="kRAPPfYNKx1Qib04YP8S-116">
          <mxGeometry x="369" y="420" width="404" height="145" as="geometry" />
        </mxCell>
        <mxCell id="kRAPPfYNKx1Qib04YP8S-142" value="&lt;font style=&quot;font-size: 12px;&quot;&gt;Motivo del rifiuto&lt;/font&gt;" style="strokeWidth=1;shadow=0;dashed=0;align=center;html=1;shape=mxgraph.mockup.forms.comboBox;strokeColor=#999999;fillColor=#ddeeff;align=left;fillColor2=#aaddff;mainText=;fontColor=#666666;fontSize=17;spacingLeft=3;" vertex="1" parent="kRAPPfYNKx1Qib04YP8S-116">
          <mxGeometry x="396" y="384" width="354" height="20" as="geometry" />
        </mxCell>
        <mxCell id="kRAPPfYNKx1Qib04YP8S-162" value="Invia" style="strokeWidth=1;shadow=0;dashed=0;align=center;html=1;shape=mxgraph.mockup.buttons.button;strokeColor=#666666;fontColor=#ffffff;mainText=;buttonStyle=round;fontSize=17;fontStyle=1;fillColor=#000000;whiteSpace=wrap;" vertex="1" parent="kRAPPfYNKx1Qib04YP8S-116">
          <mxGeometry x="500" y="580" width="110" height="30" as="geometry" />
        </mxCell>
        <mxCell id="kRAPPfYNKx1Qib04YP8S-165" value="&lt;span style=&quot;font-size: 13px;&quot;&gt;- Documento non tra quelli richiesti&lt;/span&gt;&lt;div&gt;&lt;span style=&quot;font-size: 13px;&quot;&gt;- Immagine non leggibile&lt;/span&gt;&lt;/div&gt;&lt;div&gt;&lt;span style=&quot;font-size: 13px;&quot;&gt;- Documento scaduto&lt;/span&gt;&lt;/div&gt;&lt;div&gt;&lt;span style=&quot;font-size: 13px;&quot;&gt;- Dati non corrispondono&lt;/span&gt;&lt;/div&gt;&lt;div&gt;&lt;span style=&quot;font-size: 13px;&quot;&gt;- Altro&lt;/span&gt;&lt;/div&gt;" style="shape=note;whiteSpace=wrap;html=1;backgroundOutline=1;darkOpacity=0.05;" vertex="1" parent="kRAPPfYNKx1Qib04YP8S-116">
          <mxGeometry x="846" y="340" width="164" height="177" as="geometry" />
        </mxCell>
        <mxCell id="kRAPPfYNKx1Qib04YP8S-168" value="" style="endArrow=none;dashed=1;html=1;dashPattern=1 3;strokeWidth=2;rounded=0;entryX=0.012;entryY=0.297;entryDx=0;entryDy=0;entryPerimeter=0;exitX=1.009;exitY=0.482;exitDx=0;exitDy=0;exitPerimeter=0;" edge="1" parent="kRAPPfYNKx1Qib04YP8S-116" source="kRAPPfYNKx1Qib04YP8S-142" target="kRAPPfYNKx1Qib04YP8S-165">
          <mxGeometry width="50" height="50" relative="1" as="geometry">
            <mxPoint x="586" y="440" as="sourcePoint" />
            <mxPoint x="636" y="390" as="targetPoint" />
          </mxGeometry>
        </mxCell>
        <mxCell id="kRAPPfYNKx1Qib04YP8S-164" value="&lt;span style=&quot;font-size: 13px;&quot;&gt;Viene aperta la pagina che richede il motivo del rifiuto e invia l&#39;email.&lt;/span&gt;&lt;div&gt;&lt;span style=&quot;font-size: 13px;&quot;&gt;L&#39;email dell&#39;utente viene ricavata tramite il metodo GET /users/{idUser}&lt;/span&gt;&lt;/div&gt;" style="shape=note;whiteSpace=wrap;html=1;backgroundOutline=1;darkOpacity=0.05;" vertex="1" parent="1">
          <mxGeometry x="750" y="1560" width="224" height="140" as="geometry" />
        </mxCell>
        <mxCell id="kRAPPfYNKx1Qib04YP8S-169" value="&lt;font style=&quot;font-size: 30px;&quot;&gt;CASO D&#39;USO 100&lt;/font&gt;" style="text;html=1;align=center;verticalAlign=middle;resizable=0;points=[];autosize=1;strokeColor=none;fillColor=none;" vertex="1" parent="1">
          <mxGeometry x="470" y="-80" width="270" height="50" as="geometry" />
        </mxCell>
      </root>
    </mxGraphModel>
  </diagram>
</mxfile>
